<?xml version="1.0" encoding="utf-8"?>
<!-- Generator: Adobe Illustrator 24.1.3, SVG Export Plug-In . SVG Version: 6.00 Build 0)  -->
<svg version="1.1" id="Layer_1" xmlns="http://www.w3.org/2000/svg" xmlns:xlink="http://www.w3.org/1999/xlink" x="0px" y="0px"
	 viewBox="0 0 595.28 841.89" style="enable-background:new 0 0 595.28 841.89;" xml:space="preserve">
<style type="text/css">
	.st0{fill:#CA616D;}
	.st1{fill:url(#SVGID_1_);}
	.st2{fill:url(#SVGID_2_);}
	.st3{fill:#FFFFFF;}
	.st4{fill:url(#SVGID_3_);}
</style>
<g>
	<g>
		<g>
			<g>
				<path class="st0" d="M186.54,172.04h-28.71c0,4.48,0.7,7.76,2.11,9.83c1.41,2.07,4.24,3.1,8.49,3.1c2.76,0,4.8-0.88,6.12-2.63
					c1.32-1.75,1.99-3.43,1.99-5.04h10.08c0,6.15-1.65,10.66-4.95,13.54c-3.31,2.87-7.67,4.31-13.11,4.31
					c-5.43,0-9.64-0.78-12.63-2.33c-6.15-3.16-9.22-11.55-9.22-25.17c0-8.11,1.75-14.04,5.25-17.8c3.51-3.76,8.85-5.65,16.04-5.65
					c12.47,0,18.7,6.93,18.7,20.78C186.71,166.47,186.66,168.82,186.54,172.04z M158.09,164.37h18.45c0-3.79-0.72-6.55-2.16-8.28
					c-1.44-1.72-3.64-2.59-6.6-2.59c-2.96,0-5.32,0.88-7.07,2.63C158.97,157.89,158.09,160.63,158.09,164.37z"/>
				<path class="st0" d="M289.66,180.41v1.29c-0.34,4.31-2.17,7.56-5.47,9.74c-3.31,2.19-7.43,3.28-12.37,3.28
					c-7.3,0-12.42-1.32-15.35-3.97c-2.7-2.41-4.05-5.98-4.05-10.69v-1.03h10.17c0,2.64,0.69,4.45,2.07,5.43
					c1.38,0.98,3.77,1.47,7.16,1.47c4.6,0,6.89-1.67,6.89-5c0-2.76-0.8-4.6-2.41-5.52c-0.74-0.46-1.7-0.8-2.84-1.03l-8.71-1.47
					c-7.59-1.21-11.38-5.95-11.38-14.22c0-4.6,1.68-8.18,5.04-10.73c3.36-2.56,7.63-3.84,12.8-3.84c11.78,0,17.67,5.09,17.67,15.26
					v1.12h-9.74c-0.12-2.7-0.84-4.54-2.16-5.52c-1.32-0.98-3.18-1.46-5.56-1.46c-2.39,0-4.18,0.47-5.39,1.42
					c-1.2,0.95-1.81,2-1.81,3.15c0,3.28,1.32,5.14,3.97,5.6l10.43,1.9C285.98,166.96,289.66,171.9,289.66,180.41z"/>
				<path class="st0" d="M357.86,144.8l-13.71,49.23h-9.23l-9.4-29.92l-9.4,29.92h-9.23l-13.79-49.23h11.9l7.24,32.07l7.5-26.38
					c0.86-3.79,2.81-5.69,5.86-5.69c1.43,0,2.58,0.46,3.45,1.38c0.87,0.92,1.58,2.36,2.16,4.31l7.59,26.38l7.24-32.07H357.86z"/>
				<path class="st0" d="M400.18,194.03h-7.5l-3.45-5.95l-11.98,6.47c-6.67,0-11.15-2.42-13.45-7.24c-1.15-2.36-1.94-4.9-2.37-7.63
					c-0.43-2.73-0.65-5.58-0.65-8.54c0-2.96,0.03-5.14,0.09-6.55c0.06-1.41,0.2-3.04,0.43-4.91c0.23-1.87,0.56-3.43,0.99-4.7
					c0.43-1.26,1.05-2.57,1.85-3.92c0.8-1.35,1.78-2.43,2.93-3.23c2.59-1.78,5.95-2.67,10.09-2.67h11.81l11.21-0.69V194.03z
					 M388.97,178.34v-23.11h-8.54c-3.16,0-5.36,1.21-6.6,3.62c-1.24,2.41-1.85,6.02-1.85,10.82s0.59,8.18,1.76,10.13
					c1.18,1.95,3.41,2.93,6.68,2.93L388.97,178.34z"/>
				<path class="st0" d="M448.56,168.08c0,12.82-3.31,21.01-9.92,24.57c-2.7,1.44-6,2.16-9.91,2.16l-8.28-5.35v13.13l-11.21,6.1
					v-63.54h22.07c6.67,0,11.21,1.88,13.62,5.65C447.35,154.56,448.56,160.32,448.56,168.08z M437.35,169.8
					c0-9.71-3.1-14.57-9.31-14.57h-7.59v22.85l7.59,4.91c3.33,0,5.71-1.05,7.16-3.15C436.63,177.75,437.35,174.4,437.35,169.8z"/>
			</g>
		</g>
		
			<radialGradient id="SVGID_1_" cx="158.1578" cy="-1174.3695" r="41.1952" fx="146.6181" fy="-1186.8805" gradientTransform="matrix(0.7962 -0.565 0.6315 0.8886 835.0447 1302.2238)" gradientUnits="userSpaceOnUse">
			<stop  offset="0" style="stop-color:#EBC9BF"/>
			<stop  offset="0.6613" style="stop-color:#BD8282"/>
			<stop  offset="0.985" style="stop-color:#896F87"/>
		</radialGradient>
		<path class="st1" d="M243.18,182.66c-2.84-4.13-6.52-8.73-10.86-13.52c1.59-1.74,3.36-3.75,5.13-5.89c0.32,0.07,0.66,0.1,1,0.1
			c2.76,0,4.99-2.23,4.99-4.99c0-0.81-0.2-1.57-0.54-2.24c4.21-6.09,6.9-11.93,4.23-14.59c-1.18-1.18-5.33-4.27-24.06,11.65
			l3.16,2.99c9.53-8.1,15.24-10.43,17.19-10.92c-0.34,1.38-1.61,4.14-4.35,8.17c-0.21-0.03-0.42-0.04-0.63-0.04
			c-2.76,0-4.99,2.23-4.99,4.99c0,0.7,0.15,1.37,0.41,1.98c-1.38,1.69-2.94,3.5-4.69,5.43c-0.99-1.04-2.01-2.08-3.06-3.13
			c-4.65-4.65-28.47-27.36-34.72-21.11c-3.28,3.28,0.85,11.61,12.28,24.75l3.05-3.84c-8.95-10.3-11.11-15.18-11.61-17.21
			c3.25,0.77,13.25,7.28,27.23,21.25c14,13.99,20.35,23.83,21.1,27.06c-2.93-0.68-11.33-5.63-23.86-17.6l-0.16-0.17
			c0,0,0,0-0.01,0.01c-0.03-0.03-0.06-0.05-0.09-0.08l-2.57,2.56c-11.15,10.23-18.95,14.64-21.67,15.27
			c0.36-1.55,1.95-4.78,5.14-9.33c0.17,0.02,0.35,0.03,0.52,0.03c2.53,0,4.58-2.05,4.58-4.58c0-0.6-0.12-1.18-0.33-1.71
			c2.37-2.89,5.21-6.1,8.57-9.58l-3.27-3.11c-1.98,2.05-5.42,5.71-8.9,9.88c-0.21-0.03-0.43-0.05-0.65-0.05
			c-2.53,0-4.58,2.05-4.58,4.58c0,0.62,0.12,1.2,0.34,1.74c-4.7,6.52-7.96,12.99-5.12,15.83c0.74,0.74,1.73,1.07,2.9,1.07
			c6.23,0,17.62-9.39,24.92-16.05c7.3,6.68,18.71,16.06,25.01,16.05c1.17,0,2.16-0.33,2.91-1.08
			C249.51,194.86,248.28,190.08,243.18,182.66z"/>
	</g>
	<g>
		<g>
			<path class="st0" d="M160.22,112.51h-4.19v12.9h-3.05v-12.9h-4.17v-2.72h11.41V112.51z"/>
			<path class="st0" d="M174.2,125.41h-3.05v-6.32h-5.73v6.32h-3.05v-15.62h3.05v6.6h5.73v-6.6h3.05V125.41z"/>
			<path class="st0" d="M187.91,125.41h-5.53c-1.76,0-2.99-0.3-3.7-0.91c-0.71-0.61-1.06-1.68-1.06-3.21v-11.5h10.29v2.72h-7.24
				v3.66h5.07l-0.22,2.72h-4.85v2.17c0,0.61,0.14,1.04,0.42,1.27c0.28,0.23,0.78,0.35,1.51,0.35h5.31V125.41z"/>
			<path class="st0" d="M206.27,125.41h-5.53c-1.76,0-2.99-0.3-3.7-0.91c-0.71-0.61-1.06-1.68-1.06-3.21v-11.5h10.29v2.72h-7.24
				v3.66h5.07l-0.22,2.72h-4.85v2.17c0,0.61,0.14,1.04,0.42,1.27c0.28,0.23,0.78,0.35,1.51,0.35h5.31V125.41z"/>
			<path class="st0" d="M220.12,109.79l-4.91,14.74c-0.26,0.67-0.73,1.01-1.4,1.01c-0.7,0-1.19-0.34-1.45-1.01l-4.85-14.74h3.16
				l3.14,10.18l3.14-10.18H220.12z"/>
			<path class="st0" d="M233.54,116.09l-2.81,5.92c-0.41,0.79-0.92,1.19-1.52,1.19s-1.12-0.42-1.52-1.25l-2.85-5.86v9.32h-3.05
				v-15.62h3.01l4.41,9.02l4.39-9.02h3.01v15.62h-3.05V116.09z"/>
			<path class="st0" d="M251.25,116.88v1.18c0,2.62-0.49,4.52-1.48,5.7s-2.57,1.78-4.75,1.78c-2.18,0-3.76-0.59-4.73-1.78
				s-1.46-3.11-1.46-5.77v-1.14c0-2.43,0.49-4.23,1.48-5.42c0.99-1.19,2.55-1.78,4.7-1.78c2.14,0,3.72,0.6,4.73,1.8
				S251.25,114.46,251.25,116.88z M248.2,118v-0.81c0-1.4-0.18-2.52-0.53-3.36c-0.41-0.97-1.29-1.45-2.63-1.45
				c-1.36,0-2.25,0.48-2.65,1.45c-0.34,0.79-0.5,1.91-0.5,3.36V118c0,1.89,0.26,3.16,0.79,3.82c0.2,0.28,0.51,0.52,0.91,0.71
				c0.4,0.2,0.88,0.3,1.45,0.3c0.56,0,1.04-0.1,1.44-0.29s0.7-0.42,0.92-0.7c0.22-0.28,0.39-0.64,0.5-1.1
				C248.1,120.02,248.2,119.11,248.2,118z"/>
			<path class="st0" d="M264.46,120.81c0,1.48-0.54,2.64-1.62,3.48c-1.08,0.84-2.46,1.26-4.15,1.26c-1.33,0-2.62-0.37-3.86-1.1
				c-0.61-0.38-1.12-0.92-1.51-1.61c-0.39-0.69-0.59-1.49-0.59-2.38l2.76-0.13c0,0.79,0.34,1.4,1.01,1.84
				c0.67,0.44,1.42,0.66,2.24,0.66c1.83,0,2.74-0.64,2.74-1.93c0-1.05-0.62-1.67-1.86-1.86l-2.54-0.26
				c-1.27-0.19-2.28-0.64-3.03-1.36c-0.75-0.72-1.12-1.75-1.12-3.09s0.53-2.46,1.6-3.33c1.07-0.88,2.42-1.32,4.05-1.32
				c1.63,0,2.94,0.41,3.94,1.24c0.99,0.83,1.49,1.89,1.49,3.19l-2.72,0.13c-0.25-1.27-1.1-1.91-2.57-1.91
				c-0.89,0-1.59,0.19-2.1,0.57c-0.5,0.38-0.76,0.83-0.76,1.35s0.18,0.93,0.55,1.23c0.37,0.3,0.82,0.49,1.36,0.56l2.5,0.26
				C263.06,116.67,264.46,118.17,264.46,120.81z"/>
			<path class="st0" d="M282.27,125.41h-5.53c-1.76,0-2.99-0.3-3.7-0.91c-0.71-0.61-1.06-1.68-1.06-3.21v-11.5h10.29v2.72h-7.24
				v3.66h5.07l-0.22,2.72h-4.85v2.17c0,0.61,0.14,1.04,0.42,1.27c0.28,0.23,0.78,0.35,1.51,0.35h5.31V125.41z"/>
			<path class="st0" d="M297.59,125.41h-3.77l-3.27-5.44l-3.23,5.44h-3.77l5.24-8.01l-4.91-7.61h3.75l2.92,5.05l2.96-5.05h3.73
				l-4.91,7.61L297.59,125.41z"/>
			<path class="st0" d="M307.2,119.36h2.83c0,1.99-0.5,3.52-1.49,4.58c-0.99,1.07-2.4,1.6-4.21,1.6c-3.99,0-5.99-2.35-5.99-7.04
				v-1.32c0-3.7,1.02-6.02,3.07-6.96c0.8-0.38,1.78-0.57,2.92-0.57c1.67,0,3.02,0.46,4.07,1.37c1.05,0.91,1.57,2.23,1.57,3.96h-2.85
				c-0.16-0.86-0.45-1.51-0.86-1.95c-0.41-0.44-1.05-0.66-1.93-0.66c-1.02,0-1.79,0.32-2.28,0.97c-0.35,0.45-0.56,1.23-0.61,2.33
				c-0.03,0.35-0.04,0.83-0.04,1.43v1.36c0,1.68,0.23,2.83,0.7,3.44c0.48,0.61,1.23,0.92,2.25,0.92s1.72-0.28,2.11-0.84
				C306.83,121.42,307.08,120.54,307.2,119.36z"/>
			<path class="st0" d="M324.22,125.41h-3.05v-6.32h-5.73v6.32h-3.05v-15.62h3.05v6.6h5.73v-6.6h3.05V125.41z"/>
			<path class="st0" d="M339.49,125.41h-3.18l-0.88-2.7h-5.24l-0.86,2.7h-3.18l5-14.3c0.22-0.5,0.46-0.84,0.74-1.03
				c0.27-0.19,0.6-0.29,1-0.29c0.4,0,0.71,0.09,0.95,0.26c0.24,0.18,0.46,0.53,0.65,1.05L339.49,125.41z M334.73,120.15l-1.84-6.19
				l-1.93,6.19H334.73z"/>
			<path class="st0" d="M353.82,109.79v14.04c0,0.48-0.15,0.9-0.44,1.24c-0.29,0.34-0.64,0.52-1.03,0.52
				c-1.01,0-1.83-0.58-2.48-1.75l-5.4-8.45v10.03h-3.05v-15.62h2.94l6.41,10.22v-10.22H353.82z"/>
			<path class="st0" d="M356.01,118.06v-1.93c0-2.03,0.53-3.62,1.6-4.76c1.07-1.14,2.54-1.71,4.43-1.71c1.89,0,3.4,0.57,4.54,1.71
				c0.8,0.8,1.21,2.01,1.21,3.62h-2.85c0-1.74-0.93-2.61-2.79-2.61c-0.56,0-1.03,0.11-1.42,0.32c-0.39,0.21-0.68,0.46-0.87,0.74
				s-0.34,0.69-0.44,1.23s-0.16,0.99-0.18,1.36s-0.02,0.86-0.02,1.47s0,1.03,0.01,1.24c0.01,0.21,0.03,0.56,0.07,1.03
				c0.04,0.48,0.1,0.82,0.18,1.02c0.08,0.21,0.2,0.47,0.35,0.79c0.15,0.32,0.35,0.55,0.58,0.68c0.6,0.38,1.28,0.57,2.04,0.57
				c1.27,0,2.17-0.54,2.7-1.62v-1.05h-1.89v-2.54h4.5v4.72c-0.45,1.07-1.17,1.87-2.15,2.41c-0.98,0.54-2.09,0.81-3.33,0.81
				c-2.21,0-3.81-0.62-4.79-1.85S356.01,120.58,356.01,118.06z"/>
			<path class="st0" d="M381.24,125.41h-5.53c-1.75,0-2.99-0.3-3.7-0.91c-0.71-0.61-1.06-1.68-1.06-3.21v-11.5h10.29v2.72H374v3.66
				h5.07l-0.22,2.72H374v2.17c0,0.61,0.14,1.04,0.42,1.27c0.28,0.23,0.78,0.35,1.51,0.35h5.31V125.41z"/>
			<path class="st0" d="M399.85,120.81c0,1.48-0.54,2.64-1.62,3.48c-1.08,0.84-2.46,1.26-4.15,1.26c-1.33,0-2.62-0.37-3.86-1.1
				c-0.61-0.38-1.12-0.92-1.51-1.61c-0.4-0.69-0.59-1.49-0.59-2.38l2.76-0.13c0,0.79,0.34,1.4,1.01,1.84s1.42,0.66,2.24,0.66
				c1.83,0,2.74-0.64,2.74-1.93c0-1.05-0.62-1.67-1.86-1.86l-2.55-0.26c-1.27-0.19-2.28-0.64-3.03-1.36
				c-0.75-0.72-1.12-1.75-1.12-3.09s0.53-2.46,1.6-3.33s2.42-1.32,4.05-1.32s2.94,0.41,3.94,1.24c0.99,0.83,1.49,1.89,1.49,3.19
				l-2.72,0.13c-0.25-1.27-1.1-1.91-2.57-1.91c-0.89,0-1.59,0.19-2.09,0.57c-0.5,0.38-0.76,0.83-0.76,1.35s0.18,0.93,0.55,1.23
				c0.37,0.3,0.82,0.49,1.36,0.56l2.5,0.26C398.45,116.67,399.85,118.17,399.85,120.81z"/>
			<path class="st0" d="M419.79,109.79l-4.19,15.62h-2.54l-2.87-9.48l-2.87,9.48h-2.55l-4.17-15.62h3.18l2.41,9.85l2.39-8.14
				c0.26-1.21,0.82-1.82,1.67-1.82c0.42,0,0.75,0.16,0.97,0.47c0.22,0.31,0.42,0.76,0.59,1.35l2.37,8.14l2.43-9.85H419.79z"/>
			<path class="st0" d="M433.59,125.41h-3.18l-0.88-2.7h-5.24l-0.86,2.7h-3.18l5-14.3c0.22-0.5,0.46-0.84,0.74-1.03
				c0.27-0.19,0.6-0.29,1-0.29c0.4,0,0.71,0.09,0.95,0.26c0.24,0.18,0.46,0.53,0.65,1.05L433.59,125.41z M428.83,120.15l-1.84-6.19
				l-1.93,6.19H428.83z"/>
			<path class="st0" d="M445.6,111.14c0.9,0.9,1.35,2.22,1.35,3.96s-0.45,3.06-1.35,3.96c-0.9,0.9-2.17,1.35-3.81,1.35h-3v5h-3.05
				v-15.62h6.05C443.43,109.79,444.7,110.24,445.6,111.14z M443.9,115.1c0-1.73-0.75-2.59-2.26-2.59h-2.85v5.16h2.85
				c0.73,0,1.29-0.2,1.68-0.59C443.71,116.68,443.9,116.02,443.9,115.1z"/>
		</g>
	</g>
</g>
<radialGradient id="SVGID_2_" cx="170.0364" cy="326.4583" r="464.1273" fx="95.3299" fy="293.9131" gradientUnits="userSpaceOnUse">
	<stop  offset="0.0172" style="stop-color:#D37266"/>
	<stop  offset="0.0494" style="stop-color:#BD6666"/>
	<stop  offset="0.1453" style="stop-color:#8B4E66"/>
	<stop  offset="0.2381" style="stop-color:#673D65"/>
	<stop  offset="0.3253" style="stop-color:#4C3064"/>
	<stop  offset="0.4059" style="stop-color:#382863"/>
	<stop  offset="0.4772" style="stop-color:#2B2462"/>
	<stop  offset="0.5319" style="stop-color:#262262"/>
	<stop  offset="0.709" style="stop-color:#030033"/>
</radialGradient>
<rect x="130.48" y="254.21" class="st2" width="334.32" height="334.32"/>
<g>
	<g>
		<g>
			<g>
				<path class="st3" d="M186.54,443.04h-28.71c0,4.48,0.7,7.76,2.11,9.83c1.41,2.07,4.24,3.1,8.49,3.1c2.76,0,4.8-0.88,6.12-2.63
					c1.32-1.75,1.99-3.43,1.99-5.04h10.08c0,6.15-1.65,10.66-4.95,13.54c-3.31,2.87-7.67,4.31-13.11,4.31
					c-5.43,0-9.64-0.78-12.63-2.33c-6.15-3.16-9.22-11.55-9.22-25.17c0-8.11,1.75-14.04,5.25-17.8c3.51-3.76,8.85-5.65,16.04-5.65
					c12.47,0,18.7,6.93,18.7,20.78C186.71,437.47,186.66,439.82,186.54,443.04z M158.09,435.37h18.45c0-3.79-0.72-6.55-2.16-8.28
					c-1.44-1.72-3.64-2.59-6.6-2.59c-2.96,0-5.32,0.88-7.07,2.63C158.97,428.89,158.09,431.63,158.09,435.37z"/>
				<path class="st3" d="M289.66,451.4v1.29c-0.34,4.31-2.17,7.56-5.47,9.74c-3.31,2.19-7.43,3.28-12.37,3.28
					c-7.3,0-12.42-1.32-15.35-3.97c-2.7-2.41-4.05-5.98-4.05-10.69v-1.03h10.17c0,2.64,0.69,4.45,2.07,5.43
					c1.38,0.98,3.77,1.47,7.16,1.47c4.6,0,6.89-1.67,6.89-5c0-2.76-0.8-4.6-2.41-5.52c-0.74-0.46-1.7-0.8-2.84-1.03l-8.71-1.47
					c-7.59-1.21-11.38-5.95-11.38-14.22c0-4.6,1.68-8.18,5.04-10.73c3.36-2.56,7.63-3.84,12.8-3.84c11.78,0,17.67,5.09,17.67,15.26
					v1.12h-9.74c-0.12-2.7-0.84-4.54-2.16-5.52c-1.32-0.98-3.18-1.46-5.56-1.46c-2.39,0-4.18,0.47-5.39,1.42
					c-1.2,0.95-1.81,2-1.81,3.15c0,3.28,1.32,5.14,3.97,5.6l10.43,1.9C285.98,437.95,289.66,442.9,289.66,451.4z"/>
				<path class="st3" d="M357.86,415.79l-13.71,49.23h-9.23l-9.4-29.92l-9.4,29.92h-9.23l-13.79-49.23h11.9l7.24,32.07l7.5-26.38
					c0.86-3.79,2.81-5.69,5.86-5.69c1.43,0,2.58,0.46,3.45,1.38c0.87,0.92,1.58,2.36,2.16,4.31l7.59,26.38l7.24-32.07H357.86z"/>
				<path class="st3" d="M400.18,465.02h-7.5l-3.45-5.95l-11.98,6.47c-6.67,0-11.15-2.42-13.45-7.24c-1.15-2.36-1.94-4.9-2.37-7.63
					c-0.43-2.73-0.65-5.58-0.65-8.54c0-2.96,0.03-5.14,0.09-6.55c0.06-1.41,0.2-3.04,0.43-4.91c0.23-1.87,0.56-3.43,0.99-4.7
					c0.43-1.26,1.05-2.57,1.85-3.92c0.8-1.35,1.78-2.43,2.93-3.23c2.59-1.78,5.95-2.67,10.09-2.67h11.81l11.21-0.69V465.02z
					 M388.97,449.33v-23.11h-8.54c-3.16,0-5.36,1.21-6.6,3.62c-1.24,2.41-1.85,6.02-1.85,10.82s0.59,8.18,1.76,10.13
					c1.18,1.95,3.41,2.93,6.68,2.93L388.97,449.33z"/>
				<path class="st3" d="M448.56,439.07c0,12.82-3.31,21.01-9.92,24.57c-2.7,1.44-6,2.16-9.91,2.16l-8.28-5.35v13.13l-11.21,6.1
					v-63.54h22.07c6.67,0,11.21,1.88,13.62,5.65C447.35,425.55,448.56,431.31,448.56,439.07z M437.35,440.8
					c0-9.71-3.1-14.57-9.31-14.57h-7.59v22.85l7.59,4.91c3.33,0,5.71-1.05,7.16-3.15C436.63,448.74,437.35,445.4,437.35,440.8z"/>
			</g>
		</g>
		<path class="st3" d="M243.18,453.66c-2.84-4.13-6.52-8.73-10.86-13.52c1.59-1.74,3.36-3.75,5.13-5.89c0.32,0.07,0.66,0.1,1,0.1
			c2.76,0,4.99-2.23,4.99-4.99c0-0.81-0.2-1.57-0.54-2.24c4.21-6.09,6.9-11.93,4.23-14.59c-1.18-1.18-5.33-4.27-24.06,11.65
			l3.16,2.99c9.53-8.1,15.24-10.43,17.19-10.92c-0.34,1.38-1.61,4.14-4.35,8.17c-0.21-0.03-0.42-0.04-0.63-0.04
			c-2.76,0-4.99,2.23-4.99,4.99c0,0.7,0.15,1.37,0.41,1.98c-1.38,1.69-2.94,3.5-4.69,5.43c-0.99-1.04-2.01-2.08-3.06-3.13
			c-4.65-4.65-28.47-27.36-34.72-21.11c-3.28,3.28,0.85,11.61,12.28,24.75l3.05-3.84c-8.95-10.3-11.11-15.18-11.61-17.21
			c3.25,0.77,13.25,7.28,27.23,21.25c14,13.99,20.35,23.83,21.1,27.06c-2.93-0.68-11.33-5.63-23.86-17.6l-0.16-0.17
			c0,0,0,0-0.01,0.01c-0.03-0.03-0.06-0.05-0.09-0.08l-2.57,2.56c-11.15,10.23-18.95,14.64-21.67,15.27
			c0.36-1.55,1.95-4.78,5.14-9.33c0.17,0.02,0.35,0.03,0.52,0.03c2.53,0,4.58-2.05,4.58-4.58c0-0.6-0.12-1.18-0.33-1.71
			c2.37-2.89,5.21-6.1,8.57-9.58l-3.27-3.11c-1.98,2.05-5.42,5.71-8.9,9.88c-0.21-0.03-0.43-0.05-0.65-0.05
			c-2.53,0-4.58,2.05-4.58,4.58c0,0.62,0.12,1.2,0.34,1.74c-4.7,6.52-7.96,12.99-5.12,15.83c0.74,0.74,1.73,1.07,2.9,1.07
			c6.23,0,17.62-9.39,24.92-16.05c7.3,6.68,18.71,16.06,25.01,16.05c1.17,0,2.16-0.33,2.91-1.08
			C249.51,465.86,248.28,461.07,243.18,453.66z"/>
	</g>
	<g>
		<g>
			<path class="st0" d="M160.22,383.51h-4.19v12.9h-3.05v-12.9h-4.17v-2.72h11.41V383.51z"/>
			<path class="st0" d="M174.2,396.41h-3.05v-6.32h-5.73v6.32h-3.05v-15.62h3.05v6.6h5.73v-6.6h3.05V396.41z"/>
			<path class="st0" d="M187.91,396.41h-5.53c-1.76,0-2.99-0.3-3.7-0.91c-0.71-0.61-1.06-1.68-1.06-3.21v-11.5h10.29v2.72h-7.24
				v3.66h5.07l-0.22,2.72h-4.85v2.17c0,0.61,0.14,1.04,0.42,1.27c0.28,0.23,0.78,0.35,1.51,0.35h5.31V396.41z"/>
			<path class="st0" d="M206.27,396.41h-5.53c-1.76,0-2.99-0.3-3.7-0.91c-0.71-0.61-1.06-1.68-1.06-3.21v-11.5h10.29v2.72h-7.24
				v3.66h5.07l-0.22,2.72h-4.85v2.17c0,0.61,0.14,1.04,0.42,1.27c0.28,0.23,0.78,0.35,1.51,0.35h5.31V396.41z"/>
			<path class="st0" d="M220.12,380.79l-4.91,14.74c-0.26,0.67-0.73,1.01-1.4,1.01c-0.7,0-1.19-0.34-1.45-1.01l-4.85-14.74h3.16
				l3.14,10.18l3.14-10.18H220.12z"/>
			<path class="st0" d="M233.54,387.09l-2.81,5.92c-0.41,0.79-0.92,1.19-1.52,1.19s-1.12-0.42-1.52-1.25l-2.85-5.86v9.32h-3.05
				v-15.62h3.01l4.41,9.02l4.39-9.02h3.01v15.62h-3.05V387.09z"/>
			<path class="st0" d="M251.25,387.88v1.18c0,2.62-0.49,4.52-1.48,5.7s-2.57,1.78-4.75,1.78c-2.18,0-3.76-0.59-4.73-1.78
				s-1.46-3.11-1.46-5.77v-1.14c0-2.43,0.49-4.23,1.48-5.42c0.99-1.19,2.55-1.78,4.7-1.78c2.14,0,3.72,0.6,4.73,1.8
				S251.25,385.46,251.25,387.88z M248.2,388.99v-0.81c0-1.4-0.18-2.52-0.53-3.36c-0.41-0.97-1.29-1.45-2.63-1.45
				c-1.36,0-2.25,0.48-2.65,1.45c-0.34,0.79-0.5,1.91-0.5,3.36v0.81c0,1.89,0.26,3.16,0.79,3.82c0.2,0.28,0.51,0.52,0.91,0.71
				c0.4,0.2,0.88,0.3,1.45,0.3c0.56,0,1.04-0.1,1.44-0.29s0.7-0.42,0.92-0.7c0.22-0.28,0.39-0.64,0.5-1.1
				C248.1,391.02,248.2,390.11,248.2,388.99z"/>
			<path class="st0" d="M264.46,391.8c0,1.48-0.54,2.64-1.62,3.48c-1.08,0.84-2.46,1.26-4.15,1.26c-1.33,0-2.62-0.37-3.86-1.1
				c-0.61-0.38-1.12-0.92-1.51-1.61c-0.39-0.69-0.59-1.49-0.59-2.38l2.76-0.13c0,0.79,0.34,1.4,1.01,1.84
				c0.67,0.44,1.42,0.66,2.24,0.66c1.83,0,2.74-0.64,2.74-1.93c0-1.05-0.62-1.67-1.86-1.86l-2.54-0.26
				c-1.27-0.19-2.28-0.64-3.03-1.36c-0.75-0.72-1.12-1.75-1.12-3.09s0.53-2.46,1.6-3.33c1.07-0.88,2.42-1.32,4.05-1.32
				c1.63,0,2.94,0.41,3.94,1.24c0.99,0.83,1.49,1.89,1.49,3.19l-2.72,0.13c-0.25-1.27-1.1-1.91-2.57-1.91
				c-0.89,0-1.59,0.19-2.1,0.57c-0.5,0.38-0.76,0.83-0.76,1.35s0.18,0.93,0.55,1.23c0.37,0.3,0.82,0.49,1.36,0.56l2.5,0.26
				C263.06,387.66,264.46,389.17,264.46,391.8z"/>
			<path class="st0" d="M282.27,396.41h-5.53c-1.76,0-2.99-0.3-3.7-0.91c-0.71-0.61-1.06-1.68-1.06-3.21v-11.5h10.29v2.72h-7.24
				v3.66h5.07l-0.22,2.72h-4.85v2.17c0,0.61,0.14,1.04,0.42,1.27c0.28,0.23,0.78,0.35,1.51,0.35h5.31V396.41z"/>
			<path class="st0" d="M297.59,396.41h-3.77l-3.27-5.44l-3.23,5.44h-3.77l5.24-8.01l-4.91-7.61h3.75l2.92,5.05l2.96-5.05h3.73
				l-4.91,7.61L297.59,396.41z"/>
			<path class="st0" d="M307.2,390.35h2.83c0,1.99-0.5,3.52-1.49,4.58c-0.99,1.07-2.4,1.6-4.21,1.6c-3.99,0-5.99-2.35-5.99-7.04
				v-1.32c0-3.7,1.02-6.02,3.07-6.96c0.8-0.38,1.78-0.57,2.92-0.57c1.67,0,3.02,0.46,4.07,1.37c1.05,0.91,1.57,2.23,1.57,3.96h-2.85
				c-0.16-0.86-0.45-1.51-0.86-1.95c-0.41-0.44-1.05-0.66-1.93-0.66c-1.02,0-1.79,0.32-2.28,0.97c-0.35,0.45-0.56,1.23-0.61,2.33
				c-0.03,0.35-0.04,0.83-0.04,1.43v1.36c0,1.68,0.23,2.83,0.7,3.44c0.48,0.61,1.23,0.92,2.25,0.92s1.72-0.28,2.11-0.84
				C306.83,392.41,307.08,391.54,307.2,390.35z"/>
			<path class="st0" d="M324.22,396.41h-3.05v-6.32h-5.73v6.32h-3.05v-15.62h3.05v6.6h5.73v-6.6h3.05V396.41z"/>
			<path class="st0" d="M339.49,396.41h-3.18l-0.88-2.7h-5.24l-0.86,2.7h-3.18l5-14.3c0.22-0.5,0.46-0.84,0.74-1.03
				c0.27-0.19,0.6-0.29,1-0.29c0.4,0,0.71,0.09,0.95,0.26c0.24,0.18,0.46,0.53,0.65,1.05L339.49,396.41z M334.73,391.14l-1.84-6.19
				l-1.93,6.19H334.73z"/>
			<path class="st0" d="M353.82,380.79v14.04c0,0.48-0.15,0.9-0.44,1.24c-0.29,0.34-0.64,0.52-1.03,0.52
				c-1.01,0-1.83-0.58-2.48-1.75l-5.4-8.45v10.03h-3.05v-15.62h2.94l6.41,10.22v-10.22H353.82z"/>
			<path class="st0" d="M356.01,389.06v-1.93c0-2.03,0.53-3.62,1.6-4.76c1.07-1.14,2.54-1.71,4.43-1.71c1.89,0,3.4,0.57,4.54,1.71
				c0.8,0.8,1.21,2.01,1.21,3.62h-2.85c0-1.74-0.93-2.61-2.79-2.61c-0.56,0-1.03,0.11-1.42,0.32c-0.39,0.21-0.68,0.46-0.87,0.74
				s-0.34,0.69-0.44,1.23s-0.16,0.99-0.18,1.36s-0.02,0.86-0.02,1.47s0,1.03,0.01,1.24c0.01,0.21,0.03,0.56,0.07,1.03
				c0.04,0.48,0.1,0.82,0.18,1.02c0.08,0.21,0.2,0.47,0.35,0.79c0.15,0.32,0.35,0.55,0.58,0.68c0.6,0.38,1.28,0.57,2.04,0.57
				c1.27,0,2.17-0.54,2.7-1.62v-1.05h-1.89v-2.54h4.5v4.72c-0.45,1.07-1.17,1.87-2.15,2.41c-0.98,0.54-2.09,0.81-3.33,0.81
				c-2.21,0-3.81-0.62-4.79-1.85S356.01,391.58,356.01,389.06z"/>
			<path class="st0" d="M381.24,396.41h-5.53c-1.75,0-2.99-0.3-3.7-0.91c-0.71-0.61-1.06-1.68-1.06-3.21v-11.5h10.29v2.72H374v3.66
				h5.07l-0.22,2.72H374v2.17c0,0.61,0.14,1.04,0.42,1.27c0.28,0.23,0.78,0.35,1.51,0.35h5.31V396.41z"/>
			<path class="st0" d="M399.85,391.8c0,1.48-0.54,2.64-1.62,3.48c-1.08,0.84-2.46,1.26-4.15,1.26c-1.33,0-2.62-0.37-3.86-1.1
				c-0.61-0.38-1.12-0.92-1.51-1.61c-0.4-0.69-0.59-1.49-0.59-2.38l2.76-0.13c0,0.79,0.34,1.4,1.01,1.84s1.42,0.66,2.24,0.66
				c1.83,0,2.74-0.64,2.74-1.93c0-1.05-0.62-1.67-1.86-1.86l-2.55-0.26c-1.27-0.19-2.28-0.64-3.03-1.36
				c-0.75-0.72-1.12-1.75-1.12-3.09s0.53-2.46,1.6-3.33s2.42-1.32,4.05-1.32s2.94,0.41,3.94,1.24c0.99,0.83,1.49,1.89,1.49,3.19
				l-2.72,0.13c-0.25-1.27-1.1-1.91-2.57-1.91c-0.89,0-1.59,0.19-2.09,0.57c-0.5,0.38-0.76,0.83-0.76,1.35s0.18,0.93,0.55,1.23
				c0.37,0.3,0.82,0.49,1.36,0.56l2.5,0.26C398.45,387.66,399.85,389.17,399.85,391.8z"/>
			<path class="st0" d="M419.79,380.79l-4.19,15.62h-2.54l-2.87-9.48l-2.87,9.48h-2.55l-4.17-15.62h3.18l2.41,9.85l2.39-8.14
				c0.26-1.21,0.82-1.82,1.67-1.82c0.42,0,0.75,0.16,0.97,0.47c0.22,0.31,0.42,0.76,0.59,1.35l2.37,8.14l2.43-9.85H419.79z"/>
			<path class="st0" d="M433.59,396.41h-3.18l-0.88-2.7h-5.24l-0.86,2.7h-3.18l5-14.3c0.22-0.5,0.46-0.84,0.74-1.03
				c0.27-0.19,0.6-0.29,1-0.29c0.4,0,0.71,0.09,0.95,0.26c0.24,0.18,0.46,0.53,0.65,1.05L433.59,396.41z M428.83,391.14l-1.84-6.19
				l-1.93,6.19H428.83z"/>
			<path class="st0" d="M445.6,382.14c0.9,0.9,1.35,2.22,1.35,3.96s-0.45,3.06-1.35,3.96c-0.9,0.9-2.17,1.35-3.81,1.35h-3v5h-3.05
				v-15.62h6.05C443.43,380.79,444.7,381.24,445.6,382.14z M443.9,386.1c0-1.73-0.75-2.59-2.26-2.59h-2.85v5.16h2.85
				c0.73,0,1.29-0.2,1.68-0.59C443.71,387.68,443.9,387.02,443.9,386.1z"/>
		</g>
	</g>
</g>
<radialGradient id="SVGID_3_" cx="238.3376" cy="-620.101" r="98.9735" fx="210.6131" fy="-650.1592" gradientTransform="matrix(0.7962 -0.565 0.6315 0.8886 499.4621 1395.8523)" gradientUnits="userSpaceOnUse">
	<stop  offset="0" style="stop-color:#EBC9BF"/>
	<stop  offset="0.6613" style="stop-color:#BD8282"/>
	<stop  offset="0.985" style="stop-color:#896F87"/>
</radialGradient>
<path class="st4" d="M354.97,742.11c-6.82-9.93-15.66-20.97-26.1-32.47c3.82-4.19,8.07-9.02,12.32-14.14
	c0.78,0.16,1.59,0.24,2.41,0.24c6.62,0,12-5.37,12-11.99c0-1.94-0.47-3.77-1.29-5.39c10.12-14.62,16.57-28.66,10.17-35.05
	c-2.83-2.83-12.81-10.27-57.81,27.98l7.6,7.18c22.89-19.46,36.62-25.05,41.31-26.24c-0.81,3.31-3.87,9.94-10.46,19.63
	c-0.5-0.06-1-0.11-1.51-0.11c-6.63,0-12,5.37-12,11.99c0,1.69,0.35,3.3,0.99,4.75c-3.31,4.05-7.06,8.4-11.26,13.05
	c-2.39-2.5-4.83-5-7.35-7.52c-11.18-11.17-68.41-65.73-83.42-50.72c-7.88,7.88,2.04,27.88,29.5,59.45l7.33-9.22
	c-21.51-24.74-26.68-36.46-27.89-41.36c7.81,1.84,31.84,17.5,65.41,51.05c33.64,33.61,48.9,57.25,50.7,65
	c-7.04-1.64-27.23-13.53-57.32-42.28l-0.39-0.4c0,0-0.01,0.01-0.01,0.01c-0.07-0.07-0.14-0.13-0.21-0.2l-6.16,6.16
	c-26.78,24.58-45.52,35.17-52.06,36.7c0.87-3.74,4.69-11.49,12.35-22.41c0.41,0.05,0.83,0.08,1.26,0.08c6.08,0,11-4.92,11-10.99
	c0-1.45-0.29-2.84-0.8-4.11c5.69-6.95,12.51-14.65,20.6-23.01l-7.84-7.48c-4.76,4.92-13.03,13.71-21.38,23.73
	c-0.51-0.07-1.03-0.12-1.57-0.12c-6.08,0-11,4.92-11,10.99c0,1.48,0.3,2.88,0.83,4.17c-11.29,15.67-19.12,31.22-12.31,38.02
	c1.79,1.79,4.16,2.58,6.97,2.58c14.96,0,42.34-22.56,59.87-38.56c17.55,16.04,44.96,38.58,60.08,38.57c2.82,0,5.19-0.8,6.98-2.59
	C370.17,771.43,367.21,759.93,354.97,742.11z"/>
</svg>
